# xmcd
#
# Track frame offsets: 
#        150
#        23545
#        36535
#        50573
#        68562
#        85140
#        101203
#        112474
#        125053
#        152357
#        166235
#
# Disc length: 2468 seconds
#
# Revision: 0
# Processed by: cddbd v1.5.2PL0 Copyright (c) Steve Scherf et al.
# Submitted via: ExactAudioCopyFreeDBPlugin 1.0
#
DISCID=9209a20b
DTITLE=Rebecca - Y Dhogie Band
DYEAR=2001
DGENRE=Country
TTITLE0=Rebecca
TTITLE1=Pictiwr
TTITLE2=Cael Dy Gwmni
TTITLE3=Nid A'n Angof
TTITLE4=Seren y Sgrîn
TTITLE5=Cofio Nôl
TTITLE6=Jac y Lori Fawr
TTITLE7=Roc Ar Ôl
TTITLE8=Crwydryn
TTITLE9=Gwlad Fach Bur
TTITLE10=Ger y Môr
EXTD=
EXTT0=
EXTT1=
EXTT2=
EXTT3=
EXTT4=
EXTT5=
EXTT6=
EXTT7=
EXTT8=
EXTT9=
EXTT10=
PLAYORDER=
